/vscmnt/brussel_pixiu_data/_data_brussel/112/vsc11236/PredSimResults/SUBJ04opt3D/worker_08.mot
version=1
nRows=9
nColumns=50
inDegrees=yes
endheader
                time	         pelvis_tilt	         pelvis_list	     pelvis_rotation	           pelvis_tx	           pelvis_ty	           pelvis_tz	       hip_flexion_r	     hip_adduction_r	      hip_rotation_r	        knee_angle_r	       ankle_angle_r	         mtp_angle_r	       hip_flexion_l	     hip_adduction_l	      hip_rotation_l	        knee_angle_l	       ankle_angle_l	         mtp_angle_l	    lumbar_extension	      lumbar_bending	     lumbar_rotation	 ercspn_r/activation	 intobl_r/activation	 extobl_r/activation	    abd_r/activation	    add_r/activation	hamstrings_r/activation	bifemsh_r/activation	glut_max_r/activation	iliopsoas_r/activation	rect_fem_r/activation	  vasti_r/activation	gastroc_r/activation	 soleus_r/activation	tib_ant_r/activation	 ercspn_l/activation	 intobl_l/activation	 extobl_l/activation	    abd_l/activation	    add_l/activation	hamstrings_l/activation	bifemsh_l/activation	glut_max_l/activation	iliopsoas_l/activation	rect_fem_l/activation	  vasti_l/activation	gastroc_l/activation	 soleus_l/activation	tib_ant_l/activation	
          1.65917492	         -4.00088147	         -0.28914612	         -8.09482753	          2.15692740	          0.87108102	          0.00712840	        -14.94393411	         -0.63071059	         -6.21021011	        -10.02982349	          7.57987547	         31.89453298	         33.08880784	         -2.96308699	         -8.31211762	        -12.22394542	          6.14197224	          0.25921379	        -12.94677604	          1.56922188	          9.63826198	          0.06825016	          0.01000009	          0.01000007	          0.03305972	          0.01000101	          0.02492017	          0.21936464	          0.01402694	          0.09528507	          0.01000136	          0.01000031	          0.26753081	          0.26072398	          0.01000002	          0.07633401	          0.18308718	          0.01000032	          0.01753501	          0.38965972	          0.06038531	          0.03921683	          0.10190245	          0.14756189	          0.02330553	          0.04548146	          0.01000071	          0.01000047	          0.38138501	
          1.67023609	         -4.04054340	         -0.22507343	         -7.90681547	          2.17499708	          0.86890272	          0.00684634	        -15.36123853	         -0.87109101	         -6.79693936	        -11.34545744	          6.74927748	         33.63362529	         32.90930330	         -2.72963069	         -8.30681747	        -13.78488426	          5.78444927	          0.23379126	        -12.46552858	          1.01026043	          9.79428129	          0.09308766	          0.01000009	          0.01000033	          0.02791374	          0.01000267	          0.02104764	          0.18521928	          0.01184358	          0.11556824	          0.01000020	          0.01000016	          0.22588780	          0.23235130	          0.01000002	          0.06445218	          0.15458851	          0.01000019	          0.04984829	          0.32900670	          0.07424848	          0.03311296	          0.15407091	          0.12459286	          0.01967790	          0.06935546	          0.01507535	          0.02234996	          0.40875450	
          1.68129726	         -4.06619062	         -0.10514670	         -7.68348297	          2.19328631	          0.86691591	          0.00648002	        -15.57313542	         -1.19999935	         -7.40620179	        -13.07252348	          5.84620511	         35.31351402	         32.54426709	         -2.46880177	         -8.28093236	        -15.09907783	          5.34364690	          0.22775901	        -11.96719027	          0.38847306	          9.89806491	          0.08086630	          0.01000004	          0.01000010	          0.02356878	          0.01000041	          0.01777359	          0.15638877	          0.01000008	          0.13915419	          0.01000034	          0.01000007	          0.19072680	          0.19618426	          0.01000003	          0.06033834	          0.13052576	          0.01000014	          0.10535182	          0.27779924	          0.06887432	          0.02795933	          0.13008913	          0.10519913	          0.01661493	          0.12682605	          0.01272882	          0.01887105	          0.46234541	
          1.69235842	         -4.07971698	          0.04193536	         -7.42171137	          2.21151512	          0.86530551	          0.00599213	        -15.49119607	         -1.60005207	         -8.03389591	        -15.32969726	          4.83044466	         36.86690501	         32.09427760	         -2.17353626	         -8.31573915	        -16.24775569	          4.82695206	          0.19786941	        -11.49231205	         -0.26029693	          9.94680596	          0.12168044	          0.01000009	          0.01000009	          0.01990014	          0.01000107	          0.02995003	          0.13204587	          0.01000010	          0.11749408	          0.01000024	          0.01000011	          0.16103885	          0.16564683	          0.01000002	          0.05482728	          0.11020853	          0.01000026	          0.14739009	          0.26892549	          0.06940454	          0.02360773	          0.10984011	          0.08882416	          0.01402875	          0.21939502	          0.01074764	          0.01593369	          0.49699888	
          1.70341959	         -4.08338204	          0.22253091	         -7.13521656	          2.22947978	          0.86425099	          0.00538739	        -15.05092026	         -2.09411766	         -8.66912671	        -18.18099777	          3.65152815	         38.18230110	         31.59032083	         -1.83594799	         -8.37852283	        -17.33027287	          4.56335037	          0.16341702	        -11.06279109	         -0.94021199	          9.94824666	          0.16400806	          0.01000019	          0.01000012	          0.01680255	          0.03923987	          0.06424023	          0.11149212	          0.01000008	          0.09920545	          0.01000012	          0.01000005	          0.13597203	          0.13986276	          0.01000006	          0.04629333	          0.09305382	          0.01000028	          0.19782913	          0.22707073	          0.06494009	          0.01993334	          0.09330076	          0.07499807	          0.01184514	          0.31151034	          0.01000082	          0.01345372	          0.50742491	
          1.71448076	         -4.08088457	          0.43354190	         -6.83036092	          2.24698138	          0.86396090	          0.00467590	        -14.20165439	         -2.69234987	         -9.32089230	        -21.66347493	          2.30851695	         38.96281249	         31.02976723	         -1.44898677	         -8.41744082	        -18.31453865	          4.57399444	          0.13310989	        -10.69914546	         -1.64414908	          9.90542691	          0.18775490	          0.01000018	          0.01000011	          0.01418712	          0.11631159	          0.05424386	          0.09413769	          0.01000005	          0.08376356	          0.01000010	          0.01000003	          0.11480704	          0.11809215	          0.01000058	          0.03908766	          0.07856935	          0.01000025	          0.21768767	          0.21400183	          0.06726602	          0.01683093	          0.07877942	          0.06332411	          0.01000149	          0.37012939	          0.01000199	          0.01159525	          0.50018377	
          1.72554192	         -4.07506696	          0.64762902	         -6.50650055	          2.26391318	          0.86454224	          0.00388009	        -12.92504110	         -3.38024074	         -9.99248529	        -25.79295091	          0.89029134	         38.74564043	         30.37935165	         -1.03229513	         -8.41389984	        -19.11626890	          4.80552117	          0.11237529	        -10.41411833	         -2.33951903	          9.81749666	          0.18980412	          0.01000016	          0.01000011	          0.01197880	          0.25416172	          0.04580178	          0.07948459	          0.01000004	          0.07072528	          0.01000010	          0.01000002	          0.09693654	          0.09971029	          0.05787603	          0.03300348	          0.06633950	          0.01000028	          0.22971652	          0.22706191	          0.07318064	          0.01421165	          0.06651738	          0.05346728	          0.01000026	          0.39395823	          0.01000032	          0.01000014	          0.47026247	
          1.73660309	         -4.06729605	          0.83184311	         -6.16163800	          2.28022737	          0.86593469	          0.00304360	        -11.24523473	         -4.12916374	        -10.67591656	        -30.51598854	         -0.50149457	         37.15642557	         29.61145592	         -0.61942988	         -8.36546408	        -19.67488290	          5.21203409	          0.10453580	        -10.21370676	         -2.99092869	          9.68134805	          0.19449589	          0.01317332	          0.01000017	          0.01011423	          0.29441029	          0.03867322	          0.06711235	          0.01000006	          0.05971648	          0.01000011	          0.01000003	          0.08184770	          0.08418970	          0.13170248	          0.02786630	          0.05601331	          0.01000039	          0.24276359	          0.21181790	          0.07498311	          0.01200021	          0.05616431	          0.04514473	          0.01000027	          0.38832097	          0.01000465	          0.01017292	          0.42704500	
          1.74766425	         -4.05757693	          0.96647912	         -5.79752627	          2.29590411	          0.86798531	          0.00221259	         -9.23571667	         -4.90903523	        -11.32490977	        -35.67161012	         -1.73335051	         34.04953796	         28.73292791	         -0.23609428	         -8.26416098	        -19.98660001	          5.69669998	          0.13322232	        -10.09858445	         -3.57697134	          9.49397213	          0.22056147	          0.04750106	          0.01000073	          0.01000005	          0.24858342	          0.03265395	          0.05666597	          0.01000047	          0.05042129	          0.01000034	          0.01000007	          0.06910755	          0.07108499	          0.25627168	          0.02352875	          0.04729446	          0.01000026	          0.23995332	          0.17963372	          0.08434917	          0.01013374	          0.05912392	          0.03811765	          0.01000021	          0.36555005	          0.01000061	          0.01000033	          0.38785779	
